<?xml version="1.0" encoding="utf-8"?>
<!-- Generator: Adobe Illustrator 24.0.2, SVG Export Plug-In . SVG Version: 6.00 Build 0)  -->
<svg version="1.1" id="icon" xmlns="http://www.w3.org/2000/svg" xmlns:xlink="http://www.w3.org/1999/xlink" x="0px" y="0px"
	 viewBox="0 0 128 128" style="enable-background:new 0 0 128 128;" xml:space="preserve">
<style type="text/css">
	.st0{fill:#E6EDF4;}
	.st1{fill:#040507;}
</style>
<g>
	<path class="st0" d="M121,104.13c0,12.39-10.08,22.47-22.48,22.47c-12.39,0-22.47-10.08-22.47-22.47c0-2.95,0.58-5.78,1.61-8.38
		c-7.4-0.39-10.9-3.25-12.55-5.77c-0.65-1-2.14-0.88-2.69,0.18c-1.4,2.66-4.37,5.64-10.67,5.64c-0.49,0-0.95-0.02-1.41-0.03
		c1.04,2.59,1.61,5.42,1.61,8.36c0,12.39-10.08,22.47-22.47,22.47C17.08,126.6,7,116.52,7,104.13c0-8.51,4.69-16.04,11.91-19.85
		V43.73C11.69,39.92,7,32.39,7,23.87C7,11.48,17.08,1.4,29.48,1.4c9.26,0,17.23,5.63,20.66,13.65L60.69,4.5c2-2,4.65-3.1,7.48-3.1
		c2.83,0,5.49,1.1,7.47,3.1c1.99,1.99,3.09,4.65,3.09,7.47c0,0.45-0.02,0.89-0.08,1.33h5.59c13.7,0,24.85,11.15,24.85,24.86v46.12
		C116.31,88.1,121,95.63,121,104.13z"/>
	<g>
		<path class="st1" d="M102.09,89.07V38.16c0-9.86-7.99-17.86-17.86-17.86H64.88l5.81-5.81c1.4-1.4,1.4-3.65,0-5.05
			c-1.39-1.4-3.65-1.4-5.05,0l-11.9,11.91c-1.4,1.39-1.4,3.65,0,5.05l11.9,11.9c1.39,1.34,3.58,1.34,4.97,0.01
			c1.41-1.37,1.46-3.63,0.09-5.05l-5.81-5.81h19.35c5.92,0,10.71,4.8,10.71,10.71v50.91c-6.83,1.61-11.9,7.75-11.9,15.07
			c0,8.55,6.92,15.47,15.47,15.47c8.55,0,15.48-6.92,15.48-15.47C114,96.81,108.92,90.68,102.09,89.07z M98.53,112.47
			c-4.61,0-8.34-3.73-8.34-8.34c0-4.6,3.73-8.34,8.33-8.34c4.61,0,8.34,3.73,8.34,8.34C106.87,108.73,103.14,112.47,98.53,112.47z"
			/>
		<path class="st1" d="M33.02,89.07c0.02-0.13,0.03-0.27,0.03-0.41v-49.3c0-0.14-0.01-0.28-0.03-0.41
			c6.84-1.6,11.93-7.74,11.93-15.07c0-8.55-6.92-15.48-15.47-15.48C20.93,8.4,14,15.33,14,23.87c0,7.33,5.09,13.47,11.93,15.07
			c-0.02,0.13-0.03,0.27-0.03,0.41v49.3c0,0.14,0.01,0.28,0.03,0.41C19.09,90.67,14,96.81,14,104.13c0,8.55,6.93,15.47,15.48,15.47
			c8.55,0,15.47-6.92,15.47-15.47C44.95,96.81,39.86,90.67,33.02,89.07z M21.14,23.88c0-4.61,3.73-8.34,8.34-8.34
			c4.6,0,8.34,3.74,8.34,8.34c0,4.61-3.73,8.34-8.34,8.34C24.87,32.22,21.14,28.48,21.14,23.88z M29.48,112.47
			c-4.61,0-8.34-3.73-8.34-8.34c0-4.6,3.73-8.34,8.34-8.34c4.6,0,8.34,3.73,8.34,8.34C37.82,108.73,34.09,112.47,29.48,112.47z"/>
		<g>
			<path class="st1" d="M90.4,75.91l-0.02,0.03L78.57,87.75c-0.58,0.58-1.34,0.87-2.11,0.87c-0.76,0-1.52-0.29-2.1-0.87l-11.8-11.81
				c-0.55-0.51-0.89-1.25-0.92-2.04c-0.03-0.8,0.26-1.55,0.8-2.13c1.11-1.2,2.98-1.27,4.19-0.15l6.87,6.87V42.35
				c0-1.64,1.33-2.97,2.97-2.97c1.63,0,2.96,1.33,2.96,2.97v36.14l6.74-6.75c1.23-1.13,3.11-1.07,4.23,0.13
				C91.46,73,91.46,74.78,90.4,75.91z"/>
			<path class="st1" d="M66.36,54.32c-0.03,0.79-0.37,1.52-0.95,2.06c-0.58,0.54-1.34,0.82-2.13,0.8c-0.79-0.03-1.53-0.37-2.06-0.95
				l-6.72-6.72v36.14c0,1.64-1.33,2.97-2.97,2.97c-1.63,0-2.96-1.33-2.96-2.97V49.51l-6.74,6.75c-1.17,1.07-2.94,1.07-4.08,0.03
				c-0.58-0.55-0.91-1.28-0.94-2.07c-0.03-0.8,0.25-1.56,0.79-2.13l11.83-11.84c1.16-1.16,3.05-1.16,4.21,0L65.4,52.02
				c0.07,0.06,0.13,0.13,0.19,0.2C66.11,52.79,66.38,53.54,66.36,54.32z"/>
		</g>
	</g>
</g>
</svg>
